inDegrees=no
num_controls=7
num_derivatives=13
num_iterations=128
num_multipliers=7
num_parameters=0
num_slacks=7
num_states=26
objective=0.464730
objective_accelerations=0.005318
objective_balance=0.001966
objective_effort=0.004843
objective_height=0.445949
objective_ligament=0.006654
solver_duration=1840.255148
status=Solve_Succeeded
success=true
DataType=double
version=3
OpenSimVersion=4.5
endheader
time	/jointset/ground_pelvis/pelvis_tilt/value	/jointset/ground_pelvis/pelvis_tx/value	/jointset/ground_pelvis/pelvis_ty/value	/jointset/hip_l/hip_flexion_l/value	/jointset/hip_l/hip_adduction_l/value	/jointset/hip_l/hip_rotation_l/value	/jointset/back/lumbar_extension/value	/jointset/patellofemoral_l/patellar_flexion_l/value	/jointset/knee_l/knee_flexion_l/value	/jointset/knee_l/knee_adduction_l/value	/jointset/knee_l/knee_rotation_l/value	/jointset/ankle_l/ankle_angle_l/value	/jointset/subtalar_l/subtalar_angle_l/value	/jointset/ground_pelvis/pelvis_tilt/speed	/jointset/ground_pelvis/pelvis_tx/speed	/jointset/ground_pelvis/pelvis_ty/speed	/jointset/hip_l/hip_flexion_l/speed	/jointset/hip_l/hip_adduction_l/speed	/jointset/hip_l/hip_rotation_l/speed	/jointset/back/lumbar_extension/speed	/jointset/patellofemoral_l/patellar_flexion_l/speed	/jointset/knee_l/knee_flexion_l/speed	/jointset/knee_l/knee_adduction_l/speed	/jointset/knee_l/knee_rotation_l/speed	/jointset/ankle_l/ankle_angle_l/speed	/jointset/subtalar_l/subtalar_angle_l/speed	/forceset/tau_hip_flexion_l	/forceset/tau_hip_adduction_l	/forceset/tau_hip_rotation_l	/forceset/tau_knee_flexion_l	/forceset/tau_ankle_angle_l	/forceset/tau_subtalar_angle_l	/forceset/tau_lumbar_extension	lambda_cid13_p0	lambda_cid13_p1	lambda_cid13_p2	lambda_cid13_p3	lambda_cid13_p4	lambda_cid13_p5	lambda_cid14_p0	/jointset/ground_pelvis/pelvis_tilt/accel	/jointset/ground_pelvis/pelvis_tx/accel	/jointset/ground_pelvis/pelvis_ty/accel	/jointset/hip_l/hip_flexion_l/accel	/jointset/hip_l/hip_adduction_l/accel	/jointset/hip_l/hip_rotation_l/accel	/jointset/back/lumbar_extension/accel	/jointset/patellofemoral_l/patellar_flexion_l/accel	/jointset/knee_l/knee_flexion_l/accel	/jointset/knee_l/knee_adduction_l/accel	/jointset/knee_l/knee_rotation_l/accel	/jointset/ankle_l/ankle_angle_l/accel	/jointset/subtalar_l/subtalar_angle_l/accel	gamma_cid13_p0	gamma_cid13_p1	gamma_cid13_p2	gamma_cid13_p3	gamma_cid13_p4	gamma_cid13_p5	gamma_cid14_p0
1.5	-0.1072388245514765	0.09942069148068249	0.8831532055942068	0.3008303388588142	-0.3572620911386712	-0.4850984644676352	-0.1589638622282838	0.2174011685789551	0.2174011685789931	-0.1743365943672715	-0.1688678910972562	0.03522125134878821	0.02201219131951573	-0.02514644640950508	0.03654743559155299	0.03585825667904405	-0.2476515807402422	0.1055366828824565	-0.1583343276502893	0.3323721270170572	-0.4388822326502037	-0.4388822326502142	0.0002344385622093297	0.02136626129262524	-0.1678641125091345	0.02583367177991472	-0.02916519868320787	0.02908399602793862	-0.01395142695227259	-0.10725613955905	0.001411842097407036	0.0002241798158012983	0.0647751881840614	-34.86005086413056	-1.043733971436253	7.883409442819577	3.062896271244205	-545.0279122395581	-63.3812064977174	-42.59046875913691	0.02713114914563759	0.006043634758937075	-0.01669306157889374	-0.1315690877271786	0.09295318388375227	-0.05097336123586881	0.2638849783802975	-0.2556018244866881	-0.2556018244866887	-0.001221275639424625	0.02847391003326442	-0.1185294491844824	0.03080568265446139	-6.630967276639522e-09	1.755104314622573e-08	9.265126618726014e-09	6.739087350014794e-09	-1.385811717517707e-08	-9.62331599451339e-10	-1.84079341239057e-10
1.51	-0.1074889931858057	0.09978641554250746	0.8835108765758759	0.2983477859766432	-0.3562022200216854	-0.4866842672339179	-0.1556273002493013	0.2130003345740536	0.2130003345740175	-0.1743342268863529	-0.1686530168823507	0.03353698204916373	0.02227207281585975	-0.02488424310228437	0.03659259115272965	0.03566998128907634	-0.2488215584463243	0.1064246347962783	-0.158806030576042	0.334895795722032	-0.4412206210851343	-0.4412206210851954	0.0002435197167432918	0.02160291339408891	-0.1689641577009857	0.02614217529627339	-0.02779662601600558	0.02797007336440979	-0.01412307363344185	-0.1072132858568932	0.00283014348221494	-9.065491551199047e-05	0.06341197045423896	-34.41130650116397	-0.9908191892135271	7.880965612800392	2.918988637275195	-544.7668378666895	-63.53644720469331	-42.58876441245871	0.02621954861319055	0.003034887103635662	-0.02079078121405157	-0.1040977402843574	0.08477751113833723	-0.0422396320846516	0.2399368578104578	-0.2133652924970538	-0.2133652925046417	0.002645683718415589	0.02041104028588364	-0.1019038741948633	0.03080135864584767	-5.931355081621552e-09	1.755533272255273e-08	7.893443644173767e-09	6.294887131088531e-09	-1.21322792173156e-08	-7.096319321858714e-11	2.392324570502717e-11
1.52	-0.1077364488616463	0.1001524478340054	0.8838664856029437	0.295854656191763	-0.3551338571223598	-0.4882741812042256	-0.1522668357750187	0.2085780350969023	0.2085780350967941	-0.1743316340193433	-0.1684359461104181	0.03184247993361884	0.02253502508187118	-0.02460385471093653	0.03660908152613883	0.03544586575877793	-0.2497669612818315	0.1072350393503774	-0.1591565684553801	0.3371526260771923	-0.4431753271000978	-0.4431753271002096	0.0002795157800234458	0.02180557269887402	-0.1699106756932127	0.02644782571340451	-0.02642805334878547	0.02685615070088381	-0.01429472031457833	-0.1071704321547336	0.004248444867026511	-0.0004054896468203102	0.062048752724427	-33.96434337354531	-0.9374400697947826	7.878273659623603	2.77872072122807	-544.5321561144392	-63.69584268271755	-42.58469237513135	0.03076816597097226	0.0003105972055119125	-0.02386108964503572	-0.08665411361222865	0.07744371193919651	-0.02674035195296001	0.2105173084173426	-0.1788653404932971	-0.1788653404932853	0.004161706109781166	0.02167535069755805	-0.08782400925954754	0.03023506280898104	-5.186460561311925e-09	1.743390174531515e-08	6.280805221161456e-09	5.855681494020623e-09	-1.028939058569185e-08	9.276009599987197e-10	2.53971600017388e-10
1.53	-0.1079810122900569	0.100518502445498	0.8842196776170665	0.2933531323785896	-0.3540578317495311	-0.4898669075345126	-0.1488851397777478	0.2041380385916303	0.2041380385915467	-0.1743287067655172	-0.168216928697692	0.03013923370285351	0.0228009308022071	-0.02430866607200188	0.03659693994465388	0.03518644588398408	-0.2505009542779912	0.1079518014685699	-0.1593615164805937	0.3391444277028749	-0.4447623577622885	-0.4447623577622712	0.0002973537030689035	0.02199833581921913	-0.1707157580380535	0.02672517829449061	-0.02503140315165557	0.02569122099156496	-0.0144722917629215	-0.1071569625590745	0.005699970292023378	-0.0007153214589277214	0.06066300352123324	-33.50603025700755	-0.8875351395058693	7.875352094991631	2.635970560682148	-544.284336799829	-63.86777408810865	-42.57819189420281	0.02891808909555798	-0.002710621870280416	-0.02789756747403207	-0.0612458605218319	0.06605500612464647	-0.0132944621109374	0.1871897383821654	-0.1393796289621043	-0.139379628942749	-0.0006892765656562588	0.0181404954141028	-0.07342863399762259	0.02526134723595643	-4.393453570379916e-09	1.717889267991522e-08	4.412151634160336e-09	5.421782600177218e-09	-8.322135613195695e-09	2.040060594387115e-09	5.074435821585424e-10
